<svg xmlns="http://www.w3.org/2000/svg" viewBox="0 0 64 64" id="new-sticker"><path fill="#f16150" d="M58.91 34.12c-1.55-1.58-3.02-3.07-3.21-4.73-.18-1.69.98-3.56 2.11-5.37 1.03-1.64 2.18-3.5 1.75-4.46-.43-.95-2.57-1.3-4.45-1.62-2.12-.35-4.31-.72-5.47-1.99-1.11-1.22-1.25-3.28-1.4-5.47-.12-1.76-.25-3.74-.99-4.52-.08-.09-.17-.16-.27-.22-.97-.56-2.97.44-4.73 1.33-1.95.98-3.8 1.91-5.41 1.57-1.69-.35-3.12-2.04-4.5-3.69-1.23-1.46-2.61-3.12-3.66-3-1.05.11-2.06 2.05-2.95 3.77-.98 1.89-2 3.85-3.55 4.55-1.52.69-3.55.18-5.7-.36-1.89-.47-4.03-1.01-4.83-.28-.74.68-.43 2.79-.15 4.66.32 2.15.66 4.37-.21 5.89-.87 1.53-2.95 2.37-4.97 3.19-1.75.71-3.73 1.51-3.93 2.5-.22 1.06 1.33 2.63 2.7 4.01 1.55 1.58 3.02 3.07 3.21 4.73.18 1.69-.98 3.56-2.11 5.37-.7 1.11-1.45 2.32-1.73 3.29-.13.46-.16.86-.02 1.17.43.95 2.57 1.3 4.45 1.62 2.12.35 4.31.72 5.47 1.99 1.11 1.22 1.25 3.28 1.4 5.46.13 1.97.28 4.2 1.26 4.75.98.56 2.97-.44 4.73-1.33 1.68-.84 3.27-1.64 4.71-1.64.24 0 .47.02.7.07 1.69.35 3.12 2.04 4.5 3.69 1.23 1.46 2.6 3.12 3.66 3.01 1.05-.12 2.06-2.06 2.95-3.78.98-1.89 2-3.85 3.55-4.55 1.52-.68 3.55-.18 5.7.36 1.89.47 4.03 1.01 4.83.28.74-.68.43-2.79.15-4.66-.32-2.15-.66-4.37.21-5.89.87-1.53 2.95-2.37 4.97-3.19 1.75-.71 3.73-1.52 3.93-2.5.22-1.06-1.33-2.63-2.7-4.01zm-33.63 1.84c0 .11-.02.21-.05.29-.04.09-.09.16-.16.22-.06.05-.14.09-.23.12-.08.03-.17.04-.26.04h-.8c-.17 0-.31-.02-.43-.05a.748.748 0 0 1-.34-.18c-.1-.09-.2-.21-.3-.36-.09-.15-.2-.34-.32-.58l-1-1.88-1.29-2.44c-.14-.25-.27-.53-.41-.83-.14-.29-.26-.58-.37-.86h-.02c.02.34.04.68.05 1.02.01.34.01.69.01 1.05v4.83c0 .05-.01.09-.04.13-.02.04-.07.07-.13.1-.07.02-.15.04-.26.06a4.54 4.54 0 0 1-.84 0c-.11-.02-.19-.04-.25-.06-.07-.03-.11-.06-.13-.1a.201.201 0 0 1-.04-.13v-8.29c0-.23.07-.4.2-.51.13-.11.29-.16.48-.16h1c.19 0 .34.01.46.04.13.03.24.08.33.15.1.08.19.18.28.3.08.13.17.28.26.47l1.8 3.37c.1.21.21.41.31.6.03.06.06.13.09.19.07.14.14.27.21.41.09.19.18.39.27.58l.27.57-.03-1.04c0-.36-.01-.71-.01-1.04v-4.33c0-.04.02-.09.04-.12.03-.04.08-.08.15-.1.06-.03.15-.05.26-.07.11-.01.25-.01.42-.01.16 0 .3 0 .41.01.11.02.19.04.25.07.06.02.1.06.13.1.02.03.03.08.03.12v8.3zm7.47.27c-.02.09-.03.16-.06.22-.02.06-.05.1-.09.13-.03.02-.07.03-.11.03h-4.64c-.16 0-.29-.04-.4-.13-.1-.1-.16-.25-.16-.46v-8.04c0-.21.06-.36.16-.46.11-.09.24-.13.4-.13h4.61c.04 0 .08.01.11.03.04.02.06.07.09.13.02.06.04.13.05.22.01.1.02.21.02.36 0 .13-.01.24-.02.34-.01.09-.03.16-.05.22-.03.06-.05.1-.09.13-.03.02-.07.03-.11.03h-3.3v2.26h2.79c.04 0 .08.01.12.04.03.02.06.06.09.12.02.05.04.13.05.22a2.96 2.96 0 0 1 0 .68c-.01.09-.03.16-.05.22-.03.05-.06.09-.09.12-.04.02-.08.03-.12.03h-2.79v2.61h3.33c.04 0 .08.01.11.03.04.03.07.07.09.13.03.06.04.13.06.22.01.1.01.21.01.35s0 .25-.01.35zm13.5-8.12-2.12 8.03c-.02.11-.06.2-.11.27a.5.5 0 0 1-.23.16c-.1.03-.23.06-.38.07a9.398 9.398 0 0 1-1.26 0 1.52 1.52 0 0 1-.38-.07.395.395 0 0 1-.21-.16.847.847 0 0 1-.1-.27l-1.48-5.85h-.01l-1.4 5.85c-.02.11-.06.2-.1.26-.04.07-.11.13-.2.16-.1.04-.22.07-.38.08a9.918 9.918 0 0 1-1.29 0c-.17-.01-.3-.04-.39-.07a.438.438 0 0 1-.21-.16.847.847 0 0 1-.1-.27l-2.1-8.06c-.04-.17-.07-.3-.07-.4-.01-.1.02-.17.08-.22.06-.06.16-.09.29-.1.14-.01.33-.02.57-.02.22 0 .4.01.53.01.13.01.23.03.3.05.06.03.11.07.13.12.03.05.04.12.06.21l1.62 7.07L39 27.78c.02-.09.04-.17.07-.22.03-.06.09-.1.16-.14.07-.03.17-.05.3-.06a6.975 6.975 0 0 1 1.06 0c.14.01.24.03.32.06.07.03.12.07.16.13.03.06.06.13.08.23l1.74 7.02h.01l1.62-7.05c.01-.08.03-.14.06-.2.02-.05.07-.09.13-.13a.91.91 0 0 1 .29-.06 6.192 6.192 0 0 1 1.01 0c.11.01.2.04.25.1.05.05.07.13.07.23-.01.1-.04.24-.08.42z"></path><path d="M63.51 38.53c-.41 1.99-2.8 2.96-5.11 3.9-1.62.66-3.47 1.4-4 2.35-.54.94-.25 2.9.01 4.64.37 2.46.76 5.01-.75 6.38-1.57 1.43-4.13.79-6.61.17-1.65-.41-3.52-.88-4.44-.47-.93.42-1.83 2.15-2.62 3.67-1.17 2.25-2.38 4.58-4.46 4.81-.11.02-.21.02-.32.02-1.92 0-3.5-1.88-5.03-3.71-1.12-1.32-2.38-2.82-3.41-3.03-.96-.21-2.65.65-4.15 1.41-2.3 1.15-4.69 2.35-6.56 1.28-1.88-1.07-2.06-3.73-2.24-6.3-.11-1.68-.24-3.57-.9-4.29-.7-.78-2.64-1.1-4.35-1.39-2.48-.41-5.05-.84-5.9-2.73-.15-.35-.24-.71-.26-1.08.69-.29 1.37-.59 2.05-.89 4.6-2.07 9.01-4.45 13.21-7.15.56-.37 1.13-.74 1.69-1.12.68-.46 1.36-.92 2.03-1.42.5-.34 1-.71 1.49-1.07.24-.17.48-.35.71-.52v-.01c.57-.43 1.13-.87 1.69-1.32.68-.53 1.35-1.08 2.01-1.63.64-.54 1.27-1.08 1.89-1.64C35.95 21.4 42 14.29 47.25 5.96c.35-.56.7-1.11 1.03-1.68 1.56 1.18 1.73 3.67 1.9 6.07.11 1.68.24 3.57.9 4.29.7.78 2.64 1.1 4.35 1.39 2.48.41 5.05.84 5.9 2.73.86 1.91-.53 4.14-1.87 6.29-.91 1.45-1.94 3.11-1.83 4.12.11 1 1.47 2.37 2.66 3.58 1.8 1.82 3.65 3.7 3.22 5.78z" opacity=".07"></path><path fill="#2b2e63" d="M60.29 32.75c-1.19-1.21-2.55-2.58-2.66-3.58-.11-1.01.92-2.67 1.83-4.12 1.34-2.15 2.73-4.38 1.87-6.29-.85-1.89-3.42-2.32-5.9-2.73-1.71-.29-3.65-.61-4.35-1.39-.66-.72-.79-2.61-.9-4.29-.17-2.4-.34-4.89-1.9-6.07-.1-.09-.22-.16-.34-.23-1.87-1.07-4.26.13-6.56 1.29-1.5.75-3.2 1.6-4.15 1.4-1.03-.21-2.29-1.71-3.41-3.03C32.2 1.78 30.53-.21 28.47.02c-2.08.23-3.29 2.55-4.46 4.8-.79 1.53-1.69 3.26-2.62 3.68-.92.41-2.79-.06-4.44-.47-2.48-.62-5.04-1.26-6.61.17-1.51 1.37-1.12 3.92-.75 6.38.26 1.74.55 3.7.01 4.64-.53.94-2.38 1.69-4 2.35-2.31.94-4.7 1.91-5.11 3.9-.43 2.08 1.42 3.96 3.22 5.78 1.19 1.21 2.55 2.58 2.66 3.58.11 1.01-.92 2.67-1.83 4.12-1.09 1.75-2.22 3.56-2.13 5.21.02.37.11.73.26 1.08.85 1.89 3.42 2.32 5.9 2.73 1.71.29 3.65.61 4.35 1.39.66.72.79 2.61.9 4.29.18 2.57.36 5.23 2.24 6.3 1.87 1.07 4.26-.13 6.56-1.28 1.5-.76 3.19-1.62 4.15-1.41 1.03.21 2.29 1.71 3.41 3.03 1.53 1.83 3.11 3.71 5.03 3.71.11 0 .21 0 .32-.02 2.08-.23 3.29-2.56 4.46-4.81.79-1.52 1.69-3.25 2.62-3.67.92-.41 2.79.06 4.44.47 2.48.62 5.04 1.26 6.61-.17 1.51-1.37 1.12-3.92.75-6.38-.26-1.74-.55-3.7-.01-4.64.53-.95 2.38-1.69 4-2.35 2.31-.94 4.7-1.91 5.11-3.9.43-2.08-1.42-3.96-3.22-5.78zm1.32 5.38c-.2.98-2.18 1.79-3.93 2.5-2.02.82-4.1 1.66-4.97 3.19-.87 1.52-.53 3.74-.21 5.89.28 1.87.59 3.98-.15 4.66-.8.73-2.94.19-4.83-.28-2.15-.54-4.18-1.04-5.7-.36-1.55.7-2.57 2.66-3.55 4.55-.89 1.72-1.9 3.66-2.95 3.78-1.06.11-2.43-1.55-3.66-3.01-1.38-1.65-2.81-3.34-4.5-3.69a3.26 3.26 0 0 0-.7-.07c-1.44 0-3.03.8-4.71 1.64-1.76.89-3.75 1.89-4.73 1.33-.98-.55-1.13-2.78-1.26-4.75-.15-2.18-.29-4.24-1.4-5.46-1.16-1.27-3.35-1.64-5.47-1.99-1.88-.32-4.02-.67-4.45-1.62-.14-.31-.11-.71.02-1.17.28-.97 1.03-2.18 1.73-3.29 1.13-1.81 2.29-3.68 2.11-5.37-.19-1.66-1.66-3.15-3.21-4.73-1.37-1.38-2.92-2.95-2.7-4.01.2-.99 2.18-1.79 3.93-2.5 2.02-.82 4.1-1.66 4.97-3.19.87-1.52.53-3.74.21-5.89-.28-1.87-.59-3.98.15-4.66.8-.73 2.94-.19 4.83.28 2.15.54 4.18 1.05 5.7.36 1.55-.7 2.57-2.66 3.55-4.55.89-1.72 1.9-3.66 2.95-3.77 1.05-.12 2.43 1.54 3.66 3 1.38 1.65 2.81 3.34 4.5 3.69 1.61.34 3.46-.59 5.41-1.57 1.76-.89 3.76-1.89 4.73-1.33.1.06.19.13.27.22.74.78.87 2.76.99 4.52.15 2.19.29 4.25 1.4 5.47 1.16 1.27 3.35 1.64 5.47 1.99 1.88.32 4.02.67 4.45 1.62.43.96-.72 2.82-1.75 4.46-1.13 1.81-2.29 3.68-2.11 5.37.19 1.66 1.66 3.15 3.21 4.73 1.37 1.38 2.92 2.95 2.7 4.01z"></path><path fill="#2b2e63" d="M25.28 27.66v8.3c0 .11-.02.21-.05.29-.04.09-.09.16-.16.22-.06.05-.14.09-.23.12-.08.03-.17.04-.26.04h-.8c-.17 0-.31-.02-.43-.05a.748.748 0 0 1-.34-.18c-.1-.09-.2-.21-.3-.36-.09-.15-.2-.34-.32-.58l-2.29-4.32c-.14-.25-.27-.53-.41-.83-.14-.29-.26-.58-.37-.86h-.02c.02.34.04.68.05 1.02.01.34.01.69.01 1.05v4.83c0 .05-.01.09-.04.13-.02.04-.07.07-.13.1-.07.02-.15.04-.26.06a4.54 4.54 0 0 1-.84 0c-.11-.02-.19-.04-.25-.06-.07-.03-.11-.06-.13-.1a.201.201 0 0 1-.04-.13v-8.29c0-.23.07-.4.2-.51.13-.11.29-.16.48-.16h1c.19 0 .34.01.46.04.13.03.24.08.33.15.1.08.19.18.28.3.08.13.17.28.26.47l1.8 3.37c.1.21.21.41.31.6l.3.6c.09.19.18.39.27.58l.27.57-.03-1.04c0-.36-.01-.71-.01-1.04v-4.33c0-.04.02-.09.04-.12.03-.04.08-.08.15-.1.06-.03.15-.05.26-.07.11-.01.25-.01.42-.01.16 0 .3 0 .41.01.11.02.19.04.25.07.06.02.1.06.13.1.02.03.03.08.03.12zm7.48 8.22c0 .14 0 .25-.01.35-.02.09-.03.16-.06.22-.02.06-.05.1-.09.13-.03.02-.07.03-.11.03h-4.64c-.16 0-.29-.04-.4-.13-.1-.1-.16-.25-.16-.46v-8.04c0-.21.06-.36.16-.46.11-.09.24-.13.4-.13h4.61c.04 0 .08.01.11.03.04.02.06.07.09.13.02.06.04.13.05.22.01.1.02.21.02.36 0 .13-.01.24-.02.34-.01.09-.03.16-.05.22-.03.06-.05.1-.09.13-.03.02-.07.03-.11.03h-3.3v2.26h2.79c.04 0 .08.01.12.04.03.02.06.06.09.12.02.05.04.13.05.22a2.96 2.96 0 0 1 0 .68c-.01.09-.03.16-.05.22-.03.05-.06.09-.09.12-.04.02-.08.03-.12.03h-2.79v2.61h3.33c.04 0 .08.01.11.03.04.03.07.07.09.13.03.06.04.13.06.22.01.1.01.21.01.35zm13.57-8.19c-.01.1-.04.24-.08.42l-2.12 8.03c-.02.11-.06.2-.11.27a.5.5 0 0 1-.23.16c-.1.03-.23.06-.38.07a9.398 9.398 0 0 1-1.26 0 1.52 1.52 0 0 1-.38-.07.395.395 0 0 1-.21-.16.847.847 0 0 1-.1-.27l-1.48-5.85h-.01l-1.4 5.85c-.02.11-.06.2-.1.26-.04.07-.11.13-.2.16-.1.04-.22.07-.38.08a9.918 9.918 0 0 1-1.29 0c-.17-.01-.3-.04-.39-.07a.438.438 0 0 1-.21-.16.847.847 0 0 1-.1-.27l-2.1-8.06c-.04-.17-.07-.3-.07-.4-.01-.1.02-.17.08-.22.06-.06.16-.09.29-.1.14-.01.33-.02.57-.02.22 0 .4.01.53.01.13.01.23.03.3.05.06.03.11.07.13.12.03.05.04.12.06.21l1.62 7.07L39 27.78c.02-.09.04-.17.07-.22.03-.06.09-.1.16-.14.07-.03.17-.05.3-.06a6.975 6.975 0 0 1 1.06 0c.14.01.24.03.32.06.07.03.12.07.16.13.03.06.06.13.08.23l1.74 7.02h.01l1.62-7.05c.01-.08.03-.14.06-.2.02-.05.07-.09.13-.13a.91.91 0 0 1 .29-.06 6.192 6.192 0 0 1 1.01 0c.11.01.2.04.25.1.05.05.07.13.07.23z"></path></svg>