<svg xmlns="http://www.w3.org/2000/svg" data-name="Artboard 30" viewBox="0 0 64 64" id="new"><path fill="#f4b2b0" d="M8.264 21.409a25.986 25.986 0 0147.472 0L56 22h4.34l-.568-1.381a30.022 30.022 0 00-55.544 0L3.66 22H8zM55.736 42.591a25.986 25.986 0 01-47.472 0L8 42H3.66l.568 1.381a30.022 30.022 0 0055.544 0L60.34 42H56z"></path><path fill="#b3404a" d="M22 40a1 1 0 001-1V24H21V36.108L11.786 24.382A1 1 0 0010 25V40h2V27.892l9.214 11.726A1 1 0 0022 40zM25 39a1 1 0 001 1H36V38H27V33h9V31H27V26h9V24H26a1 1 0 00-1 1zM41 40h2a1 1 0 00.958-.713L46 32.48l2.042 6.807A1 1 0 0049 40h2a1 1 0 00.991-.868l2-15-1.982-.264L50.125 38h-.381l-2.786-9.287a1 1 0 00-1.916 0L42.256 38h-.381L39.991 23.868l-1.982.264 2 15A1 1 0 0041 40z"></path><rect width="2" height="2" x="17" y="44" fill="#b3404a"></rect><rect width="2" height="2" x="37" y="48" fill="#b3404a"></rect><rect width="2" height="2" x="29" y="43" fill="#b3404a"></rect><rect width="2" height="2" x="39" y="12" fill="#b3404a"></rect><rect width="2" height="2" x="25" y="51" fill="#b3404a"></rect><rect width="2" height="2" x="25" y="47" fill="#b3404a"></rect><rect width="2" height="2" x="27" y="49" fill="#b3404a"></rect><rect width="2" height="2" x="23" y="49" fill="#b3404a"></rect><rect width="2" height="2" x="44" y="46" fill="#b3404a"></rect><rect width="2" height="2" x="44" y="42" fill="#b3404a"></rect><rect width="2" height="2" x="46" y="44" fill="#b3404a"></rect><rect width="2" height="2" x="42" y="44" fill="#b3404a"></rect><rect width="2" height="2" x="36" y="19" fill="#b3404a"></rect><rect width="2" height="2" x="31" y="11" fill="#b3404a"></rect><rect width="2" height="2" x="31" y="15" fill="#b3404a"></rect><rect width="2" height="2" x="29" y="13" fill="#b3404a"></rect><rect width="2" height="2" x="33" y="13" fill="#b3404a"></rect><rect width="2" height="2" x="17" y="15" fill="#b3404a"></rect><rect width="2" height="2" x="17" y="19" fill="#b3404a"></rect><rect width="2" height="2" x="15" y="17" fill="#b3404a"></rect><rect width="2" height="2" x="19" y="17" fill="#b3404a"></rect><rect width="2" height="2" x="23" y="11" fill="#b3404a"></rect><rect width="2" height="2" x="26" y="18" fill="#b3404a"></rect><rect width="2" height="2" x="44" y="19" fill="#b3404a"></rect><rect width="2" height="2" x="44" y="15" fill="#b3404a"></rect><rect width="2" height="2" x="46" y="17" fill="#b3404a"></rect><rect width="2" height="2" x="42" y="17" fill="#b3404a"></rect><path fill="#b3404a" d="M61.082,21.21a31.029,31.029,0,0,0-58.164,0A3,3,0,0,0,1,24V40a3,3,0,0,0,1.918,2.79,31.029,31.029,0,0,0,58.164,0A3,3,0,0,0,63,40V24A3,3,0,0,0,61.082,21.21ZM61,40a1,1,0,0,1-1,1H57.452a26.937,26.937,0,0,0,0-18H60a1,1,0,0,1,1,1ZM4,41a1,1,0,0,1-1-1V24a1,1,0,0,1,1-1H6.548a26.937,26.937,0,0,0,0,18Zm3-9A25,25,0,1,1,32,57,25.028,25.028,0,0,1,7,32ZM32,3A29.083,29.083,0,0,1,58.847,21h-2.2a26.985,26.985,0,0,0-49.3,0h-2.2A29.083,29.083,0,0,1,32,3Zm0,58A29.083,29.083,0,0,1,5.153,43h2.2a26.985,26.985,0,0,0,49.3,0h2.2A29.083,29.083,0,0,1,32,61Z"></path></svg>